<svg xmlns="http://www.w3.org/2000/svg" width="25" height="24" viewBox="0 0 25 24" fill="none">
  <path d="M21.25 6H4.24991" stroke="#303137" stroke-width="1.5" stroke-linecap="round"/>
  <path d="M19.5833 8.5L19.1234 15.3991C18.9464 18.054 18.8579 19.3815 17.9929 20.1907C17.1279 21 15.7975 21 13.1367 21H12.3633C9.70251 21 8.37211 21 7.5071 20.1907C6.64209 19.3815 6.55359 18.054 6.3766 15.3991L5.91666 8.5" stroke="#303137" stroke-width="1.5" stroke-linecap="round"/>
  <path d="M10.25 11L10.75 16" stroke="#303137" stroke-width="1.5" stroke-linecap="round"/>
  <path d="M15.25 11L14.75 16" stroke="#303137" stroke-width="1.5" stroke-linecap="round"/>
  <path d="M7.25 6C7.30588 6 7.33382 6 7.35915 5.99936C8.18259 5.97849 8.90902 5.45491 9.18922 4.68032C9.19784 4.65649 9.20667 4.62999 9.22434 4.57697L9.32143 4.28571C9.40431 4.03708 9.44575 3.91276 9.50071 3.8072C9.72001 3.38607 10.1257 3.09364 10.5946 3.01877C10.7121 3 10.8432 3 11.1053 3H14.3947C14.6568 3 14.7879 3 14.9054 3.01877C15.3743 3.09364 15.78 3.38607 15.9993 3.8072C16.0543 3.91276 16.0957 4.03708 16.1786 4.28571L16.2757 4.57697C16.2933 4.62992 16.3022 4.65651 16.3108 4.68032C16.591 5.45491 17.3174 5.97849 18.1409 5.99936C18.1662 6 18.1941 6 18.25 6" stroke="#303137" stroke-width="1.5"/>
</svg>