<svg xmlns="http://www.w3.org/2000/svg" width="25" height="24" viewBox="0 0 25 24" fill="none">
  <path d="M22.75 10.5V12C22.75 16.714 22.75 19.0711 21.2855 20.5355C19.8211 22 17.464 22 12.75 22C8.03595 22 5.67893 22 4.21447 20.5355C2.75 19.0711 2.75 16.714 2.75 12C2.75 7.28595 2.75 4.92893 4.21447 3.46447C5.67893 2 8.03595 2 12.75 2H14.25" stroke="#303137" stroke-width="1.5" stroke-linecap="round"/>
  <path d="M17.402 3.45506L18.0509 2.80624C19.1259 1.73125 20.8688 1.73125 21.9438 2.80624C23.0187 3.88124 23.0187 5.62415 21.9438 6.69914L21.2949 7.34795M17.402 3.45506C17.402 3.45506 17.4831 4.83379 18.6997 6.05032C19.9162 7.26685 21.2949 7.34795 21.2949 7.34795M17.402 3.45506L11.4372 9.41993C11.0332 9.82394 10.8312 10.0259 10.6574 10.2487C10.4525 10.5114 10.2768 10.7957 10.1334 11.0965C10.0119 11.3515 9.92157 11.6225 9.74089 12.1646L9.16242 13.9M21.2949 7.34795L15.3301 13.3128C14.9261 13.7168 14.7241 13.9188 14.5013 14.0926C14.2386 14.2975 13.9543 14.4732 13.6535 14.6166C13.3985 14.7381 13.1275 14.8284 12.5854 15.0091L10.85 15.5876M10.85 15.5876L9.72709 15.9619C9.46035 16.0508 9.16626 15.9814 8.96744 15.7826C8.76862 15.5837 8.6992 15.2897 8.78811 15.0229L9.16242 13.9M10.85 15.5876L9.16242 13.9" stroke="#303137" stroke-width="1.5"/>
</svg>