<svg width="45" height="44" viewBox="0 0 45 44" fill="none" xmlns="http://www.w3.org/2000/svg">
<path d="M20.6121 1.1547C21.8497 0.440169 23.3745 0.440169 24.6121 1.1547L39.4481 9.7203C40.6857 10.4348 41.4481 11.7553 41.4481 13.1844V30.3156C41.4481 31.7447 40.6857 33.0652 39.4481 33.7797L24.6121 42.3453C23.3745 43.0598 21.8497 43.0598 20.6121 42.3453L5.77601 33.7797C4.5384 33.0652 3.77601 31.7447 3.77601 30.3156V13.1844C3.77601 11.7553 4.5384 10.4348 5.77601 9.7203L20.6121 1.1547Z" fill="#55AAFF"/>
<rect width="6.11414" height="23.6593" rx="3.05707" transform="matrix(0.849858 0.527011 -0.473466 0.880812 21.0638 9.6665)" fill="white"/>
<rect width="6.11414" height="23.6593" rx="3.05707" transform="matrix(0.849858 0.527011 -0.473466 0.880812 30.064 9.6665)" fill="white"/>
</svg>
