<svg width="25" height="24" viewBox="0 0 25 24" fill="none" xmlns="http://www.w3.org/2000/svg">
<path d="M15.34 16.26C18.36 16.83 20.5 18.29 20.5 20V22H4.5V20C4.5 18.29 6.64 16.83 9.66 16.26L12.5 21L15.34 16.26ZM8.5 8H16.5V10C16.5 11.0609 16.0786 12.0783 15.3284 12.8284C14.5783 13.5786 13.5609 14 12.5 14C11.4391 14 10.4217 13.5786 9.67157 12.8284C8.92143 12.0783 8.5 11.0609 8.5 10V8ZM8.5 7L8.91 2.9C8.96 2.39 9.39 2 9.91 2H15.1C15.61 2 16.04 2.39 16.09 2.9L16.5 7H8.5ZM12.5 3H11.5V4H10.5V5H11.5V6H12.5V5H13.5V4H12.5V3Z" fill="#FCFCFC"/>
</svg>
